<svg xmlns="http://www.w3.org/2000/svg" viewBox="0 0 400 480" fill="none" stroke="#BFA4CE" stroke-linecap="round" stroke-linejoin="round">

  <!-- Coin circle above middle finger -->
  <circle cx="215" cy="148" r="38" stroke-width="3" stroke-dasharray="10 6"/>
  <!-- Coin symbol -->
  <text x="215" y="154" text-anchor="middle" font-family="DM Sans, ui-sans-serif, system-ui" font-size="18" fill="#BFA4CE" stroke="none">₨</text>

  <!-- Pinky finger — 70px wide, center x=53, ~75% of middle height -->
  <path d="M18,460 L18,281 Q18,265 53,265 Q88,265 88,281 L88,460"
        stroke-width="3" stroke-dasharray="10 6"/>

  <!-- Ring finger — 75px wide, center x=132, ~90% of middle height -->
  <path d="M95,460 L95,244 Q95,226 132,226 Q170,226 170,244 L170,460"
        stroke-width="3" stroke-dasharray="10 6"/>

  <!-- Middle finger — tallest, coin sits above (unchanged) -->
  <path d="M188,460 L188,228 Q188,200 216,200 Q244,200 244,228 L244,460"
        stroke-width="3" stroke-dasharray="10 6"/>

  <!-- Index finger — 75px wide, center x=308, ~88% of middle height -->
  <path d="M271,460 L271,249 Q271,231 308,231 Q346,231 346,249 L346,460"
        stroke-width="3" stroke-dasharray="10 6"/>

  <!-- Small label -->
  <text x="215" y="178" text-anchor="middle" font-family="DM Sans, ui-sans-serif, system-ui"
        font-size="11" letter-spacing="2" fill="#BFA4CE" stroke="none" opacity="0.7">COIN ABOVE MIDDLE NAIL</text>

</svg>
