<!--
  tiktok.svg — TikTok brand icon
  Use on: Footer social links, marketing section
  Style: filled, 24x24
-->
<svg xmlns="http://www.w3.org/2000/svg" viewBox="0 0 24 24" fill="currentColor">
  <path d="M19.59 6.69a4.83 4.83 0 01-3.77-4.25V2h-3.45v13.67a2.89 2.89 0 01-2.88 2.5 2.89 2.89 0 01-2.89-2.89 2.89 2.89 0 012.89-2.89c.28 0 .54.04.79.1V9.01a6.33 6.33 0 00-.79-.05 6.34 6.34 0 00-6.34 6.34 6.34 6.34 0 006.34 6.34 6.34 6.34 0 006.33-6.34l.01-8.22a8.16 8.16 0 004.77 1.52V5.17a4.85 4.85 0 01-1.01-.48z"/>
</svg>
