<?xml version="1.0" encoding="UTF-8"?>
<!--
  Nails by Mona — Text-only wordmark
  Circle ring removed. Use this on the website nav, footer, and OG images.
  The circle variant (Nails by Mona Logo.svg) is reserved for stickers / packaging.
  Color: #bfa4ce (brand lavender — direct from original logo)
-->
<svg xmlns="http://www.w3.org/2000/svg" viewBox="20 48 142 94">
  <defs>
    <style>.st0 { fill: #ffffff; }</style>
  </defs>

  <!-- N -->
  <path class="st0" d="M56.29,53.75c1.24.06,2.25.24,3.02.52s1.47.74,2.08,1.37c.67.7,1.14,1.58,1.39,2.65.25,1.07.38,2.72.38,4.97v23.6l-26.54-33.86h-12.58v.75c1.26.06,2.28.24,3.06.52s1.45.74,2.04,1.37c.68.7,1.14,1.59,1.39,2.66s.38,2.72.38,4.92v24.12c0,2.22-.13,3.87-.38,4.95-.25,1.08-.71,1.97-1.39,2.66-.61.63-1.3,1.09-2.08,1.37-.77.28-1.78.46-3.02.52v.75h15.07v-.75c-1.24-.07-2.25-.24-3.02-.52-.77-.28-1.47-.74-2.08-1.37-.68-.7-1.14-1.58-1.39-2.65-.25-1.07-.38-2.72-.38-4.97v-28.44l30.79,38.7h1.47v-34.38c0-2.2.12-3.84.38-4.92.25-1.08.71-1.97,1.39-2.66,1.22-1.26,2.92-1.9,5.1-1.9v-.75h-15.07v.75Z"/>

  <!-- a -->
  <path class="st0" d="M87.76,97.02c.74-.41,1.84-1.27,3.31-2.58.72,1.24,1.42,2.11,2.1,2.61,1.02.76,2.31,1.14,3.86,1.14,2.81,0,4.61-1.14,5.39-3.43l-.56-.33c-.52.72-.98,1.2-1.36,1.44-.38.24-.91.36-1.59.36-1.42,0-2.31-.77-2.68-2.32-.17-.74-.26-2.14-.26-4.18v-12.09c0-1.55-.09-2.65-.26-3.3-.35-1.29-1.23-2.33-2.65-3.14-.98-.54-2.2-.99-3.67-1.34-1.46-.35-2.87-.52-4.22-.52-1.2,0-2.43.13-3.68.38-1.26.25-2.31.57-3.16.96-1.57.76-2.36,1.7-2.36,2.81,0,.74.25,1.36.75,1.85.5.49,1.12.74,1.86.74,1.13,0,1.92-.51,2.35-1.54l.82-1.9c.35-.81.87-1.44,1.57-1.9.7-.46,1.49-.69,2.39-.69.74,0,1.45.16,2.14.49.69.33,1.25.76,1.68,1.31.96,1.18,1.44,3.04,1.44,5.59,0,1.2-.13,2.14-.39,2.81s-.74,1.26-1.44,1.76c-.61.46-1.37.85-2.27,1.18-.9.33-2.3.73-4.2,1.21-1.61.41-2.84.82-3.69,1.23-.85.4-1.6.94-2.25,1.62-1.16,1.22-1.73,2.74-1.73,4.54,0,1.96.7,3.52,2.11,4.67,1.41,1.15,3.31,1.73,5.71,1.73,1.88,0,3.52-.39,4.94-1.18ZM81.87,95.62c-.79-.94-1.19-2.12-1.19-3.56,0-1.68.51-3.15,1.53-4.41.5-.61,1.05-1.13,1.66-1.57.61-.44,1.71-1.08,3.29-1.93,1.41-.74,2.7-1.6,3.88-2.58v5.46c0,2.77-.34,4.88-1.01,6.34-.48,1.11-1.19,2-2.13,2.66-.94.66-1.95,1-3.01,1-1.22,0-2.22-.47-3.01-1.41Z"/>

  <!-- i dot -->
  <path class="st0" d="M109.62,57.61c.85,0,1.56-.27,2.12-.82s.84-1.23.84-2.06-.29-1.49-.85-2.04c-.57-.56-1.27-.83-2.1-.83s-1.53.28-2.1.83-.85,1.24-.85,2.04.28,1.52.84,2.06,1.27.82,2.12.82Z"/>

  <!-- i stem + first l -->
  <path class="st0" d="M116.89,96.93c-1.63-.3-2.76-.75-3.37-1.34-.5-.46-.84-1.03-1.01-1.71-.17-.68-.26-1.76-.26-3.24l-.03-2.48v-18.82l-9.41,1.18v.69c.98.06,1.73.23,2.25.5.52.27.97.71,1.34,1.32.37.56.61,1.3.72,2.19.11.9.16,2.47.16,4.7v8.03c0,1.91-.05,3.37-.15,4.37-.1,1.01-.27,1.76-.51,2.26-.35.76-.81,1.3-1.37,1.61-.57.31-1.5.56-2.81.73v.69h14.45v-.69Z"/>

  <!-- second l -->
  <path class="st0" d="M133.1,96.93c-1.63-.3-2.76-.75-3.37-1.34-.5-.46-.84-1.03-1.01-1.71s-.26-1.77-.26-3.25l-.03-2.48v-36.45l-9.41,1.18v.72c.98.07,1.73.23,2.25.49.52.26.97.7,1.34,1.31.37.57.61,1.31.72,2.22.11.91.16,2.48.16,4.7v25.62c0,1.91-.05,3.38-.15,4.39-.1,1.01-.27,1.77-.51,2.27-.35.76-.81,1.3-1.37,1.62-.57.32-1.5.56-2.81.73v.69h14.45v-.69Z"/>

  <!-- s -->
  <path class="st0" d="M139.38,96.63c.3,0,.56.03.75.08.2.05.77.27,1.73.64,1.48.57,2.94.85,4.38.85,2.66,0,4.84-.87,6.54-2.62,1.48-1.5,2.22-3.4,2.22-5.69,0-1.9-.51-3.54-1.53-4.94-1.02-1.39-2.57-2.56-4.63-3.5l-3.46-1.57c-1.61-.72-2.8-1.51-3.57-2.37-.77-.86-1.16-1.82-1.16-2.89,0-1.28.43-2.37,1.29-3.25.86-.88,1.89-1.32,3.11-1.32.87,0,1.75.23,2.64.7.89.47,1.67,1.12,2.35,1.94.5.59.89,1.2,1.16,1.83.27.63.53,1.47.77,2.52h.69l-.36-7.42h-.65c-.37.65-.76.98-1.18.98-.26,0-.57-.06-.92-.2l-1.11-.49c-.96-.39-1.99-.59-3.11-.59-2.48,0-4.48.81-5.98,2.42-1.31,1.42-1.96,3.11-1.96,5.07,0,1.83.65,3.44,1.96,4.84.91.98,2.74,2.2,5.48,3.66,1.57.83,2.68,1.47,3.34,1.93.66.46,1.21.96,1.65,1.5.78,1.02,1.17,2.22,1.17,3.59,0,1.68-.54,2.97-1.63,3.89-1,.83-2.18,1.24-3.55,1.24-2.24,0-4.2-1.23-5.87-3.69-.91-1.35-1.67-3.16-2.28-5.43h-.52v9.25h.52c.39-.65.97-.98,1.73-.98Z"/>

  <!-- "Nails by Mona" script calligraphy (bottom portion) -->
  <path class="st0" d="M62.06,117.7c-.15-.05-.31-.03-.47.05-1.44.8-2.97,1.45-4.54,1.93-1.55.47-3.22.61-4.98.41-.48-.06-1,0-1.54.18.51-1.14.87-2.05,1.05-2.72.05-.2.04-.38-.05-.51-.08-.13-.21-.22-.43-.27-.23-.03-.68.08-1.91,1.13-.92.76-1.98,1.57-3.15,2.4-1.16.83-2.12,1.31-2.84,1.43-.08.01-.14,0-.19-.03-.07-.05-.09-.17-.1-.25-.01-.26.06-.6.22-1.02.17-.43.37-.88.61-1.33.06-.12.12-.21.17-.32.07-.08.13-.17.16-.28,0,0,0-.01,0-.02.11-.19.21-.37.3-.52.17-.28.26-.44.27-.45l.03-.04c.08-.15.1-.3.07-.45-.03-.15-.12-.28-.28-.39-.15-.08-.3-.11-.46-.07-.15.04-.28.12-.37.26-.04.05-.12.17-.34.55-.1.17-.21.36-.32.57-2.37,1.43-4.35,2.34-5.87,2.71-1.44.35-2.68.49-3.68.44.33-.61.5-1.25.5-1.92,0-.46-.1-.93-.3-1.4-.1-.24-.23-.44-.39-.61-.62-.63-1.43-.76-2.41-.38-.79.31-1.63.82-2.5,1.53-.57.47-1.12.95-1.63,1.44.13-.27.26-.55.4-.84.78-.54,1.68-1.27,2.68-2.17,1.02-.91,2.01-1.92,2.94-2.99.71-.82,1.32-1.66,1.82-2.48.5-.83.83-1.63.99-2.38.08-.46.08-.96,0-1.5-.07-.33-.18-.62-.35-.87-.24-.33-.57-.49-.98-.49-.19,0-.39.05-.59.15-.54.28-1.15.87-1.85,1.83-.68.92-1.4,2.05-2.14,3.35-1.19,2.12-2.31,4.29-3.33,6.45-1.02,2.16-1.75,3.76-2.15,4.76-.06.16-.06.31,0,.47.06.15.18.26.34.33.13.05.27.06.4.02.13-.04.24-.11.32-.22.28-.34.78-.9,1.5-1.66s1.54-1.52,2.42-2.24c.77-.62,1.5-1.07,2.15-1.34.5-.19.85-.17,1.08.05.06.07.12.17.18.28.13.3.19.6.19.91,0,.64-.22,1.26-.66,1.85-.63-.04-1.25-.04-1.84.01-.63.05-1.3.24-2,.56-.54.26-.87.53-1.02.85-.13.28-.15.56-.05.82.08.22.21.4.39.55.16.14.35.25.57.32.21.08.41.12.6.12.56,0,1.15-.13,1.74-.39.81-.36,1.53-.89,2.16-1.58.78.06,1.67.05,2.66-.04,1.02-.08,2.24-.38,3.62-.87.94-.33,2.01-.84,3.19-1.48-.04.09-.08.19-.11.28-.19.53-.28.99-.25,1.38.07.54.25.92.55,1.15.27.21.64.29,1.09.23.91-.15,2.02-.68,3.29-1.58,1.15-.8,2.19-1.58,3.1-2.31-.27.62-.59,1.31-.96,2.06-.72.47-1.47,1.03-2.21,1.69-1.61,1.46-3.1,3.02-4.43,4.63-1.33,1.61-2.24,2.78-2.7,3.48-.76,1.2-1.15,2.2-1.17,2.98,0,.34.04.64.16.88.16.33.4.54.72.62.08.02.16.03.25.03.19,0,.39-.05.61-.15.85-.42,1.8-1.25,2.83-2.46,1.02-1.2,2.06-2.62,3.09-4.21,1.45-2.26,2.73-4.48,3.8-6.62.85-.51,1.6-.74,2.22-.68,1.94.22,3.79.07,5.48-.45,1.67-.51,3.28-1.19,4.77-2.03.16-.08.26-.21.31-.37.05-.16.03-.32-.05-.46-.08-.16-.2-.26-.36-.31ZM28.31,116.45c.76-1.52,1.55-3.02,2.36-4.45.69-1.21,1.35-2.26,1.96-3.11.59-.83,1.1-1.36,1.49-1.56.03-.02.05-.02.06-.03.06.08.1.21.12.36.06.38.06.73,0,1.05-.12.62-.41,1.31-.86,2.03-.46.73-1.01,1.49-1.66,2.25-1.14,1.3-2.31,2.46-3.48,3.46ZM28.69,123.05c-.05,0-.11-.01-.17-.04-.06-.02-.11-.05-.16-.09.06-.04.16-.11.36-.21.73-.31,1.44-.47,2.14-.49-.29.21-.6.39-.92.53-.44.2-.86.3-1.25.3ZM47.43,123.68c-.78,1.42-1.64,2.85-2.57,4.27-.98,1.53-1.96,2.88-2.9,4.01-.93,1.11-1.76,1.85-2.48,2.21,0-.05-.02-.12-.01-.22,0-.56.33-1.34.97-2.34.44-.69,1.32-1.82,2.61-3.38,1.29-1.56,2.75-3.07,4.31-4.49.02-.02.05-.04.07-.06Z"/>

  <path class="st0" d="M101.92,107.14c.07-.25.06-.45-.02-.61-.08-.14-.21-.23-.41-.29-.22-.03-.59.08-1.56,1.29-.68.86-1.51,1.96-2.46,3.27-1.04,1.43-2.1,2.87-3.16,4.27-1.06,1.41-1.96,2.52-2.67,3.29-.82.91-1.56,1.52-2.2,1.81-.14.05-.25.03-.36-.08-.09-.09-.21-.32-.29-.88-.11-1.02-.04-2.48.21-4.35.25-1.87.52-3.65.8-5.29.24-1.44.37-2.36.41-2.83.02-.44-.2-.69-.62-.71-.27.01-.56.32-.94,1-.33.61-.74,1.42-1.21,2.42-.73,1.54-1.6,3.32-2.58,5.28-.97,1.93-1.93,3.64-2.85,5.08-.91,1.42-1.66,2.2-2.22,2.32-.17.02-.3.1-.4.22-.1.12-.15.28-.13.46.02.17.1.3.22.4h0c.13.1.28.15.47.13.83-.17,1.75-1.01,2.82-2.58,1.03-1.52,2.08-3.31,3.1-5.31.98-1.91,1.85-3.69,2.61-5.28-.24,1.44-.46,2.98-.67,4.59-.26,1.94-.33,3.49-.21,4.6.14.93.41,1.53.81,1.82.41.29.91.33,1.48.13.42-.16.86-.44,1.32-.83.44-.38.9-.81,1.35-1.29.73-.79,1.65-1.92,2.73-3.36,1.08-1.43,2.15-2.88,3.2-4.33.02-.03.05-.07.07-.1-.31.65-.64,1.34-.97,2.05-.64,1.37-1.2,2.74-1.66,4.06-.46,1.34-.72,2.53-.76,3.55-.04,1.06.27,1.82.93,2.27.11.06.22.1.33.1.05,0,.1,0,.15-.02.15-.04.28-.13.38-.28.08-.15.1-.31.07-.46-.04-.16-.13-.29-.27-.36-.39-.27-.54-.83-.43-1.67.11-.88.4-1.94.86-3.15.46-1.22,1-2.48,1.6-3.75.61-1.28,1.18-2.46,1.72-3.51.74-1.45,1.22-2.49,1.44-3.1Z"/>

  <path class="st0" d="M154.68,117.85c-.15-.03-.31,0-.46.08-1.5.96-3.01,1.8-4.48,2.48-1.46.68-2.78,1.13-3.92,1.34-.8.14-1.44.13-1.91-.05-.38-.15-.6-.45-.68-.94-.11-.68.13-1.73.69-3.13.09-.2.1-.38.04-.53-.06-.14-.18-.25-.36-.32-.23-.09-.52,0-.89.28-.32.23-.69.54-1.12.92,0-.14-.03-.27-.13-.39-.66-.82-1.56-1.2-2.7-1.17-.84.02-1.67.24-2.48.64-.37.17-.71.38-1.03.62-.11,0-.22.03-.32.1-1.55,1.07-2.99,1.97-4.29,2.68-1.28.71-2.42,1.13-3.39,1.25-.86.11-1.56-.13-2.13-.76-.58-.63-1-1.76-1.26-3.38-.06-.34-.19-.58-.4-.72-.2-.14-.46-.18-.77-.12-.62.14-1.4.6-2.33,1.37-.91.75-1.8,1.55-2.66,2.37-.01.01-.02.03-.04.04.04-.1.1-.23.17-.4.18-.38.38-.8.61-1.25.3-.58.53-1.05.68-1.41.08-.16.1-.31.05-.47-.05-.16-.15-.28-.3-.36-.15-.09-.31-.1-.47-.05-.16.05-.28.15-.37.31-.01.03-.11.23-.36.71-.02.04-.04.09-.06.13-.02,0-.04,0-.06.02-.72.4-1.6.83-2.62,1.26-1.03.44-2.1.81-3.2,1.11-1.21.33-2.32.46-3.28.39-.39-.04-.74-.13-1.04-.27.06-.09.11-.18.15-.27.1-.2.19-.42.28-.67.15-.42.22-.84.2-1.25-.02-.55-.27-.96-.76-1.21-.05-.03-.11-.06-.18-.07-.28-.09-.54-.1-.79-.04-.26.07-.48.21-.66.41-.16.18-.28.39-.35.64-.16.48-.17,1.02-.03,1.62.07.27.18.53.3.74.03.06.06.11.09.17-.1.08-.21.16-.32.24-.69.47-1.46.84-2.28,1.09-.74.23-1.33.27-1.73.11-.08-.04-.13-.08-.17-.15-.17-.25-.25-.52-.25-.8,0-.44.15-.88.45-1.34.31-.47.71-.88,1.18-1.2.52-.36,1.02-.54,1.47-.54.17,0,.31-.06.44-.18.12-.12.18-.27.18-.44s-.06-.32-.18-.43h0c-.12-.12-.27-.17-.43-.17-.71,0-1.44.26-2.18.77-.59.42-1.1.93-1.49,1.53-.44.65-.66,1.32-.66,2.01,0,.51.15,1.01.46,1.5.17.24.4.43.67.55.34.14.72.21,1.13.21.45,0,.94-.08,1.47-.25.94-.29,1.83-.71,2.63-1.26.18-.12.35-.25.5-.38.5.31,1.1.5,1.79.56,1.11.09,2.36-.05,3.7-.42,1.15-.31,2.28-.7,3.37-1.16.48-.21.93-.41,1.35-.61-.26.58-.49,1.14-.69,1.68-.23.64-.34,1.13-.34,1.49,0,.21.07.35.19.43.06.04.13.06.22.06.11,0,.25-.04.41-.11.3-.18.86-.66,1.72-1.47.79-.76,1.66-1.53,2.56-2.31.78-.67,1.41-1.1,1.86-1.29.32,1.86.87,3.19,1.64,3.94.81.79,1.83,1.12,3.04.97,1.1-.14,2.36-.59,3.75-1.35.7-.38,1.44-.82,2.2-1.3-.13.54-.13,1.1,0,1.71.03.12.07.23.13.34.22.41.6.68,1.14.81.17.04.36.06.56.06.32,0,.66-.05,1.04-.14.52-.12,1.1-.35,1.73-.68.65-.36,1.38-.88,2.18-1.53.73-.6,1.42-1.18,2.04-1.72-.16.71-.21,1.33-.14,1.83.15.94.63,1.58,1.42,1.9.69.27,1.56.31,2.59.13,1.23-.22,2.63-.7,4.18-1.41,1.53-.71,3.1-1.58,4.67-2.58.15-.09.24-.23.27-.39.03-.15,0-.31-.08-.46-.09-.15-.22-.24-.39-.27ZM137.37,121.27c-.53.28-1.02.47-1.45.57-.44.11-.8.14-1.06.08-.17-.04-.28-.11-.33-.2,0,0,0,0-.01-.04-.17-.85.03-1.59.61-2.26.44-.53,1-.96,1.67-1.28.66-.32,1.33-.49,1.98-.51.04,0,.09,0,.13,0,.69,0,1.2.22,1.58.68.11.14.24.22.4.24.01,0,.02,0,.03,0-.48.42-.99.85-1.52,1.28-.76.62-1.44,1.11-2.03,1.43ZM106.83,118.11c0,.24-.04.5-.13.79-.05.13-.1.26-.15.38-.02-.06-.04-.13-.06-.2-.09-.35-.09-.66,0-.93.02-.09.06-.15.12-.21.01-.02.03-.03.06-.03,0,0,0,0,.01,0,.01,0,.04,0,.07.01h.02s.06.1.07.19Z"/>
</svg>
